<svg version="1.1" id="Layer_1" xmlns="http://www.w3.org/2000/svg" x="0" y="0" viewBox="0 0 1223.3 263.2" style="enable-background:new 0 0 1223.3 263.2" xml:space="preserve">
  <style>
    .st1{fill:#2a2a2a}
  </style>
  <g id="Layer_2_1_">
    <g id="Layer_1-2">
      <path d="m624.1 124.7-.1-1.1c-.8-6.6-1.9-13.1-3.5-19.6l-.3-1.1c-4.3-16.5-12.9-33.8-25.9-45.2-.8-.6-1.6-1.3-2.4-2-3.3-3-6.7-5.8-10.4-8.3l-1.1-.8c-3.3-2.2-6.7-4.2-10.3-6l-.9-.4c-17.3-8.4-35.4-12.6-54.4-15l-1.5-.2c-2.1-.3-4.3-.5-6.5-.7l-1.1-.1c-8.2-.6-16.3-.8-24.5-.8h-1.4c-9.4 0-18.9.5-28.3 1.6l-1 .1c-10.3 1.2-20.6 3.2-30.6 6.1l-1 .3c-1.6.5-3.3 1-4.9 1.6l-.8.3c-5.9 2.1-11.7 4.6-17.3 7.5l-.9.5c-5.8 3-11.2 6.5-16.4 10.5l-1.1.9c-7.5 5.8-13.8 13-19.3 20.6l-.5.7c-10.6 14.4-15.9 32.8-17.8 50.3l-.1 1.1c-.6 5.8-.9 11.5-.9 17.3v1.2c-.1 7 .3 14.1 1.4 21.1l.2 1.1c3.1 18.3 9.2 35.4 20.7 50.2l.6.8c4.3 5.5 9.2 10.4 14.6 14.7l.6.5c15.5 12.5 34.2 20.5 53.4 24.7 1 .2 1.9.4 2.9.6 4.2.9 8.5 1.7 12.8 2.2 1.2.1 2.5.3 3.7.5l3.1.4 1.5.2c17 2.2 39.2 3.8 55.9-.4v-26.2c-1.5.2-3.1.3-4.6.5-17 2-34.3 1.9-51.3-.3l-1.6-.2c-15.7-2-31.7-6.1-45.6-14l-.9-.5c-6.3-3.5-12.1-7.8-17.3-12.7-16.9-16.9-24.2-39.4-24.2-63v-.9c0-13.1 1.7-25.9 6.5-38.2 7.9-19.9 23.9-34.9 43.3-43.5l.9-.4C437 51.9 460 49.7 483 49.7h1.2c18.5 0 38.2 1 56 6.6l.9.3c15.4 4.8 29.7 11.5 39.9 24.5l.8 1c14.5 18.5 16.6 42.9 16.5 65.5v1.2c0 2.4-.1 4.7-.4 7.1l-.1.8c-.3 3.1-.8 6.2-1.5 9.3-.9 3.6-2.1 7-5.4 9-3.1 1.5-6.7 1.7-10 .8-2.3-.8-4.1-2.5-5.2-4.7l-.4-1c-2.7-6.1-2.8-13.4-2.8-20.1V78h-62v16.7l-.8-.4c-1-1.3-2.1-2.5-3.4-3.5l-.8-.6c-8-6.6-17.5-11.1-27.6-13.3-20.5-4.3-44-2.2-61.8 9.1-11.7 7.8-19.8 19.9-22.9 33.6l-.2 1.4c-2.7 11.1-3.2 22.7-1.5 34.1l.3 2c.4 4 1.2 7.9 2.4 11.7l.5 1.3c2.9 8.3 6.7 16.3 13.2 22.4l.8.8c2.2 2.1 4.5 4.1 7 6 17.1 11.7 40.9 13.2 60.8 9.6 15.5-3 29.3-10.3 38.3-23.6.9-1.4 1.9-2.8 3-4.2 2.6 5.3 5.5 10.4 9.9 14.5l.8.7c5.3 5.2 11.8 9 18.8 11.3l.9.3c5.4 1.6 11.1 2.4 16.8 2.3h2.9c5.1.1 10.3-.4 15.3-1.4l.8-.2c2.9-.6 5.7-1.6 8.4-2.8l.7-.3c7.1-3.1 13.4-8 18.2-14.1 14-18.7 15.6-44.3 12.8-66.7zm-113.7 20.1c-.1 3-1.6 5.2-3.5 7.4-7 5.4-15.9 6.2-24.4 6.2h-2.7c-4.8.1-9.6-.4-14.2-1.7l-.8-.2c-4-1.3-7.7-3.3-10-6.9-1.2-2.6-1.8-5.5-1.5-8.4l.1-.9c.4-2.9 1.9-5.6 4.2-7.5 6.7-4.9 15-5.6 23-5.5h3.5c7.8 0 17 .6 23 6.2 2.9 3.5 3.3 6.7 3.3 11.3z" style="fill:#3b82f6"/>
      <path class="st1" d="M0 52.1h67.7c2.5 7.2 5 14.3 7.6 21.7l3.8 10.8C81 90.2 83 95.7 85 101.3l.5 1.5.2.7 1 2.9.5 1.4c2.5 7.2 5 14.3 7.6 21.5 2.2 6.1 4.3 12.2 6.4 18.3 4.3-12 8.5-24 12.7-36 2.7-7.5 5.3-15.1 8-22.7l3.2-9.2 1.8-5.1 1-2.7c1-2.9 2.1-5.9 3.1-8.8l.2-.7 1.6-4.5c.3-.7.5-1.4.8-2.1l.5-1.3.4-1.2c.3-.9.3-.9.7-1.2H207.9c.3.7.6 1.4.9 2.2l.5 1.2c.8 1.8 1.4 3.7 2 5.6l.4 1.2.9 2.6c.8 2.3 1.6 4.7 2.4 7l.2.7c1.6 4.7 3.3 9.5 5 14.2 2.2 6.1 4.3 12.2 6.4 18.3 2.4 7 4.9 14 7.4 21 .3.7.5 1.5.8 2.2l.4 1.1c.9 2.5 1.8 5 2.6 7.5l.4 1c.6 1.6 1.1 3.1 1.6 4.7l.6 1.6.5 1.4c.3 1 .3 1 .8 1.4l.2-.7 16.3-46.7c.3-.9.6-1.8 1-2.7l2.4-6.8 4.4-12.6 1.8-5.1c.4-1.2.8-2.3 1.2-3.5l1.4-3.9.4-1.1c1.4-4 2.9-8 4.4-12.1h67.7c-1.3 3.6-2.5 7.3-3.8 11l-1.6 4.8c-2.9 8.5-5.8 16.9-8.8 25.3-2.1 5.9-4.2 11.9-6.3 17.9-2.3 6.8-4.7 13.5-7.1 20.2-2 5.7-4 11.5-6 17.2-2.1 6.2-4.3 12.3-6.5 18.4-2.5 7-4.9 14-7.3 20.9l-6.9 19.8h-88.7l-7.6-22.1-4.8-13.4c-1.8-5.1-3.6-10.2-5.4-15.4-2.5-7.3-5.1-14.6-7.7-21.8-.2-.7-.5-1.4-.7-2.1l-1-2.8-.3-.8c-.2-.8-.6-1.6-1.1-2.3l-.2.6c-3.3 9.7-6.7 19.4-10.2 29.1-2.5 7-5 14.1-7.4 21.1-2.7 7.8-5.4 15.5-8.2 23.3l-.4 1-.7 1.8c-.4 1.2-.8 2.4-1.1 3.7H54.4l-8.4-24-11.7-33.3c-2.2-6.3-4.4-12.6-6.6-19-2.2-6.4-4.4-12.7-6.6-19-2-5.7-4.1-11.4-6.1-17.2-2.2-6.2-4.3-12.5-6.5-18.7-2-5.5-3.9-11.1-5.8-16.6-.2-.7-.5-1.3-.7-2-.3-.9-.6-1.8-1-2.8l-.3-.8C0 52.5 0 52.5 0 52.1zM1122.7 49.3h3c9.7-.1 19.4.3 29 1.3l1.5.2c3.2.4 6.4.8 9.5 1.3l1.4.2c16.4 2.8 34.2 8 44.6 22 3.2 4.7 5.5 9.9 6.8 15.4l.3 1.1c.6 2.3 1 4.7 1.3 7.1l.1.9c.2 2.6.3 5.1.2 7.7H1158l-.8-4.6c-.8-2.3-2.4-4.2-4.6-5.3-8.6-3.6-18.9-2.8-28-2.8h-4.4c-15.7-.7-15.7-.7-30.3 3.5-1 1.1-1.6 2.5-1.6 3.9 0 1.2.4 2.4 1.2 3.3 8.5 5.8 24.1 3.9 34.1 4.4l3.2.2h.8l1.6.1 4.9.2c5 .2 9.9.4 14.8 1.1 1.9.2 3.7.4 5.6.5 6.9.5 13.7 1.5 20.5 2.8l3.9.8c4.9.8 9.7 2.1 14.4 3.6l.9.3c6 2.2 11.8 4.5 16.6 8.8l1 .9c8.1 7.6 10.9 18.6 11.3 29.3.3 12.8-3.3 23.6-12.2 33-2.1 2-4.4 3.8-6.9 5.3l-.7.4c-3.9 2.3-8.1 4.2-12.4 5.7-.7.2-1.3.5-2 .7-2.7 1-5.5 1.8-8.4 2.4l-.7.2c-9.7 2.1-19.6 3.5-29.5 4.2l-1.3.1c-32.1 2.9-72.7 3.2-107.4-17.4-9-7.6-13.9-18-15.8-29.6l-.2-.9c-.3-2.9-.4-5.7-.2-8.6h62.4l.8 4.9c1.3 2.6 2.9 4.6 5.7 5.5 2.1.6 4.2 1.1 6.4 1.3l1.2.1c4.8.5 9.5.8 14.3.8h7.9c7.3 0 14.7 0 22-.6l.9-.1c4.2-.3 8.5-.9 12-3.3 1.1-1.5 1.5-3.5 1.1-5.3-1-2.3-2.8-3.2-4.9-4.2-1.1-.4-2.3-.6-3.5-.8l-1.1-.2c-9-1.4-18.2-1.7-27.4-2.1l-1.2-.1-9.2-.3c-59.8-2.2-59.8-2.2-77.4-19.8-8.8-9.7-10.3-22.5-9.9-35.1.6-10 5-19.5 12.3-26.4 13.8-11.9 33.2-14.9 50.7-17l.8-.1c11.2-.5 22.3-1 33.4-.9zM641.5 0h62.4v207.7h-62.4V0zM724.4 52.1h62.4v155.6h-62.4V52.1zM724.4 0h62.4v41.5h-62.4V0zM947.7 52.1l-.4 18.3-3.4-3c-22.7-20-60.5-22.1-88.6-14.5l-.7.2c-11.5 3.2-22.6 8.8-31.2 17.2-15.1 15.7-21.2 36.5-21.1 58v6.6c0 2.1.1 4.3.3 6.4l.1.8c1.4 11.6 3.7 22.7 9.5 33l.8 1.2c2.7 4.7 6 9.1 9.8 12.9l.9.8c4.9 4.5 10.4 8.4 16.3 11.4l.8.4c7 3.4 14.4 5.8 22.1 7l1.1.2c6.9 1.1 13.9 1.7 20.9 1.7h1.1c7.4.1 14.7-.6 22-1.9l.9-.2c12.2-2.3 24.1-7 33.9-14.8l4.6-4.2.4 18.3h62.4V52.1h-62.5zm-.7 86.4c-2 6.5-6.6 11.9-12.7 14.9-2.2 1.1-4.5 2-6.8 2.7l-.8.3c-6.2 1.9-12.8 2.1-19.2 2.1h-3.9c-11.1 0-23.5-1.7-31.9-9.7-5.9-6.2-7.1-13.4-6.9-21.6.2-6.2 2.7-12.2 7.2-16.5 9.8-7.8 21.6-9.3 33.8-9.2H912.1c3.6 0 7.2.4 10.7 1.1l.9.2c8.2 1.9 15.7 5.3 20.6 12.5 3.8 7.1 4.7 15.4 2.7 23.2z"/>
    </g>
  </g>
</svg>
